<?xml version="1.0" encoding="utf-8"?>
<!-- Generator: Adobe Illustrator 23.0.0, SVG Export Plug-In . SVG Version: 6.00 Build 0)  -->
<svg version="1.1" id="레이어_1" xmlns="http://www.w3.org/2000/svg" xmlns:xlink="http://www.w3.org/1999/xlink" x="0px"
	 y="0px" viewBox="0 0 150 50" style="enable-background:new 0 0 150 50;" xml:space="preserve">
<g>
	<path d="M0,46.7l0.6-12.3c1.4,1.1,2.6,1.7,3.7,1.7c0.6,0,1,0,1.5-0.1c0.4-0.1,0.8-0.2,1.1-0.3V32l-2-0.6c-0.9-0.3-1.7-0.8-2.3-1.5
		c-0.6-0.7-1.1-1.7-1.5-2.9s-0.6-2.7-0.8-4.4c-0.2-1.7-0.2-3.7-0.2-6c0-3.2,0.1-5.8,0.3-8S1,4.9,1.4,3.6c0.4-1.3,1-2.2,1.7-2.8
		C3.8,0.3,4.6,0,5.6,0c2,0,3.7,0.6,5.3,1.9l-0.6,11.9C9,13,7.9,12.6,7.1,12.6c-0.8,0-1.5,0.1-2.1,0.4v3.7l1.6,0.5
		c1,0.3,1.8,0.9,2.4,1.6c0.7,0.8,1.2,1.8,1.6,3c0.4,1.2,0.7,2.7,0.9,4.4c0.2,1.7,0.2,3.6,0.2,5.8c0,3.1-0.1,5.8-0.4,7.9
		c-0.2,2.1-0.5,3.8-0.9,4.9c-0.3,0.9-0.6,1.6-1.1,2.1c-0.4,0.5-0.9,0.9-1.3,1.1c-0.5,0.2-0.9,0.4-1.4,0.5c-0.5,0.1-0.9,0.1-1.3,0.1
		c-1,0-1.9-0.2-2.8-0.5C1.7,47.8,0.8,47.3,0,46.7z"/>
	<path d="M13,1.1h4.4V36H19c0.6,0,1-0.2,1.2-0.7c0.2-0.5,0.3-1.6,0.3-3.2V1.1H25v26.1c0,4-0.1,7.3-0.2,10c-0.2,2.7-0.5,4.9-0.9,6.7
		c-0.4,1.7-1,2.9-1.8,3.7c-0.8,0.7-1.8,1.1-3,1.1c-1.2,0-2.2-0.4-3-1.1c-0.8-0.7-1.4-2-1.8-3.7c-0.4-1.7-0.7-3.9-0.9-6.7
		c-0.2-2.7-0.2-6.1-0.2-10.1V1.1z"/>
	<path d="M40.2,47.5V31.1h-3.3v16.4h-4.4V1.1h4.4v16.4h3.3V1.1h4.4v46.4H40.2z"/>
	<path d="M50.6,1.1l1.2,16.3H52l1.2-16.3h4.9l-4,33.8v12.6h-4.4V34.9l-4-33.8H50.6z"/>
	<path d="M58.9,1.1h4.4V36H65c0.6,0,1-0.2,1.2-0.7c0.2-0.5,0.3-1.6,0.3-3.2V1.1h4.4v26.1c0,4-0.1,7.3-0.2,10
		c-0.2,2.7-0.5,4.9-0.9,6.7c-0.4,1.7-1,2.9-1.8,3.7c-0.8,0.7-1.8,1.1-3,1.1c-1.2,0-2.2-0.4-3-1.1c-0.8-0.7-1.4-2-1.8-3.7
		c-0.4-1.7-0.7-3.9-0.9-6.7c-0.2-2.7-0.2-6.1-0.2-10.1V1.1z"/>
	<path d="M85.1,47.5h-4.2l-3.4-16.5c-0.1-0.3-0.1-0.7-0.1-1.3c0-0.6-0.1-1.3-0.1-2.3h-0.1v20.1h-4.4V1.1h4.2l3.4,16.5
		c0.1,0.3,0.1,0.7,0.1,1.3c0,0.6,0.1,1.3,0.1,2.3h0.1V1.1h4.4V47.5z"/>
	<path d="M87.5,37.7h3L89.7,50h-2.8L87.5,37.7z"/>
	<path d="M105.2,36.3h-2.9v11.2h-4.4V1.1h7c3.2,0,4.8,5.7,4.8,17.1c0,2.5-0.1,4.9-0.2,7.1c-0.1,2.2-0.4,4.1-0.7,5.7
		c-0.4,1.6-0.8,2.9-1.4,3.9C106.7,35.9,106,36.3,105.2,36.3z M103.3,13h-1v11.4h1c0.5,0,0.9-0.2,1.2-0.6c0.2-0.4,0.4-1.2,0.4-2.6
		v-5.2c0-1.3-0.1-2.2-0.4-2.5C104.2,13.2,103.9,13,103.3,13z"/>
	<path d="M114.3,47.5h-4.7l3.6-46.4h6.9l3.6,46.4H119l-0.5-7.4h-3.7L114.3,47.5z M116.5,15.3l-0.9,13h2l-0.9-13H116.5z"/>
	<path d="M134.2,32.1l2.4,15.5h-4.9l-1.8-13.8h-1v13.8h-4.4V1.1h7c3.2,0,4.8,5.4,4.8,16.3C136.3,24.8,135.6,29.7,134.2,32.1z
		 M130,13h-1v9.3h1c0.5,0,0.9-0.2,1.2-0.6c0.2-0.4,0.4-1.2,0.4-2.5v-3.1c0-1.3-0.1-2.2-0.4-2.5C130.9,13.2,130.5,13,130,13z"/>
	<path d="M142.7,27.4L142.7,27.4l-0.1,20.2h-4.4V1.1h4.4V20h0.1c0-0.7,0-1.4,0.1-2c0-0.6,0.1-1.1,0.1-1.6l2.2-15.3h4.8l-3.3,22.8
		l3.4,23.6h-4.8l-2.3-16.6c-0.1-0.5-0.1-1-0.1-1.5C142.7,28.8,142.7,28.1,142.7,27.4z"/>
</g>
</svg>
