<svg xmlns="http://www.w3.org/2000/svg" xmlns:xlink="http://www.w3.org/1999/xlink" viewBox="0 0 239.65 63.81"><defs><style>.cls-1{opacity:0.2;}.cls-2{fill:url(#무제_그라디언트_19);}.cls-3{fill:url(#무제_그라디언트_19-2);}.cls-4{fill:url(#무제_그라디언트_19-3);}.cls-5{fill:url(#무제_그라디언트_19-4);}.cls-6{fill:url(#무제_그라디언트_19-5);}.cls-7{fill:#1a5586;}.cls-8{fill:#e55a59;}.cls-9{fill:none;}.cls-10{fill:#2d80b4;}</style><linearGradient id="무제_그라디언트_19" x1="127.11" y1="22.99" x2="212.27" y2="44.22" gradientUnits="userSpaceOnUse"><stop offset="0" stop-color="#0079b0"/><stop offset="1" stop-color="#ed797a"/></linearGradient><linearGradient id="무제_그라디언트_19-2" x1="129.2" y1="14.63" x2="214.36" y2="35.87" xlink:href="#무제_그라디언트_19"/><linearGradient id="무제_그라디언트_19-3" x1="131.34" y1="6.05" x2="216.5" y2="27.28" xlink:href="#무제_그라디언트_19"/><linearGradient id="무제_그라디언트_19-4" x1="133.41" y1="-2.24" x2="218.56" y2="18.99" xlink:href="#무제_그라디언트_19"/><linearGradient id="무제_그라디언트_19-5" x1="135.85" y1="-12.05" x2="221.01" y2="9.18" xlink:href="#무제_그라디언트_19"/></defs><title>lets_logo</title><g id="레이어_2" data-name="레이어 2"><g id="레이어_1-2" data-name="레이어 1"><g class="cls-1"><path class="cls-2" d="M138.51,32.77a5.41,5.41,0,0,1-5.06,5.5q-7.84.43-12.58.43h-.07a8.61,8.61,0,0,1-8.5-8.55c0-1.95-.06-3.91-.06-5.86q0-5.53.41-15.52a5.57,5.57,0,0,1,5.52-5.39h0a5.57,5.57,0,0,1,5.45,5.79q-.2,7.28-.19,9.75v6.62a1.83,1.83,0,0,0,1.82,1.85l7.88-.06a5.39,5.39,0,0,1,5.38,5.44Z"/><path class="cls-3" d="M169.28,32.31A5.67,5.67,0,0,1,164,38.25q-7.57.44-17,.39h0a5.59,5.59,0,0,1-5.45-5.36c-.21-4.1-.32-7.86-.32-11.31q0-5.44.26-12.74A5.59,5.59,0,0,1,147,3.77l16.08-.22a5.3,5.3,0,0,1,5.3,5.3h0a5.3,5.3,0,0,1-5.06,5.42l-10.11.35a.89.89,0,0,0-.84.83h0a.89.89,0,0,0,.88,1l11.21-.08a4.23,4.23,0,0,1,4.21,4.16h0a4.25,4.25,0,0,1-4.06,4.42l-11.28.33a.89.89,0,0,0-.85,1v.22a.89.89,0,0,0,.91.84l10.08-.45a5.64,5.64,0,0,1,5.82,5.51Z"/><path class="cls-4" d="M196.78,13l-3.79.08-.61,20.52A5.38,5.38,0,0,1,187,38.79h0a5.39,5.39,0,0,1-5.35-5.31l-.23-20.19-4.76.12a4.77,4.77,0,0,1-4.88-4.88V8.26a4.76,4.76,0,0,1,4.72-4.65l20.16-.16A4.77,4.77,0,0,1,201.44,8h0A4.76,4.76,0,0,1,196.78,13Z"/><path class="cls-5" d="M237.71,13.62h0a4.79,4.79,0,0,1-6,1.21,11.35,11.35,0,0,0-5.36-1.36c-1.87,0-2.81.39-2.81,1.17q0,.9,4.14,2.6a48.65,48.65,0,0,1,7.75,3.82c2.8,1.91,4.2,4.06,4.2,6.43a10,10,0,0,1-3.88,8.12,13.4,13.4,0,0,1-8.71,2.92q-5.59,0-11.16-4.62a4.73,4.73,0,0,1-.67-6.56h0a4.76,4.76,0,0,1,6.47-.92q.47.33,1,.63A10.47,10.47,0,0,0,228,28.81c1.55,0,2.33-.42,2.33-1.27s-1.54-1.65-4.62-2.81a45.77,45.77,0,0,1-8.54-3.83q-4.62-3-4.62-7.16,0-4.62,4.46-7.6a15.53,15.53,0,0,1,8.76-2.6,20.83,20.83,0,0,1,8.12,1.7,21.58,21.58,0,0,1,2.68,1.33A4.76,4.76,0,0,1,237.71,13.62Z"/><path class="cls-6" d="M204,9a51.15,51.15,0,0,0,1.21-7.17,2,2,0,0,1,2-1.83h0a2,2,0,0,1,2,2.33,38,38,0,0,1-2,7.72,1.68,1.68,0,0,1-1.56,1h0A1.68,1.68,0,0,1,204,9Z"/></g><path class="cls-7" d="M84.31,44.68l-.12,13.23a5.76,5.76,0,0,0,6,5.81h0a5.77,5.77,0,0,0,5.56-5.92l-.65-23.11a5.35,5.35,0,0,0-5.36-5.18h0a5.34,5.34,0,0,0-5.3,5.29Z"/><path class="cls-7" d="M76.4,57.89a5.76,5.76,0,0,1-6,5.83h0a5.76,5.76,0,0,1-5.55-5.92l.65-23.11a5.33,5.33,0,0,1,10.66.11Z"/><path class="cls-7" d="M131.87,29.51l-1.73-.06a6.44,6.44,0,0,0-6,3.64L118.7,44.32l-5.41-11.23a6.44,6.44,0,0,0-6-3.64l-1.73.06a6.45,6.45,0,0,0-6.22,6.39c0,3.92,0,7.67,0,11.23,0,3.78.1,7.46.32,11A5.12,5.12,0,0,0,104.46,63h.09a5.15,5.15,0,0,0,5.4-5.42q-.37-6.87-.46-10.85l4.69,8.65a5.14,5.14,0,0,0,9,0l4.69-8.65q-.14,6.42-.36,10.88a5.14,5.14,0,0,0,10.27.56c.22-3.56.32-7.24.32-11,0-3.53,0-7.27,0-11.23A6.45,6.45,0,0,0,131.87,29.51Z"/><path class="cls-8" d="M182,27.53A5.58,5.58,0,0,0,176.33,33q-.39,9-.39,15.52c0,3.44.06,6.7.16,9.78a5.38,5.38,0,1,0,10.74-.3c-.05-2.65-.07-5.7-.07-9.17q0-7.1.43-15.25A5.64,5.64,0,0,0,182,27.53Z"/><path class="cls-8" d="M220.92,31.46q-5.32-3.88-14.77-3.89A49.71,49.71,0,0,0,192,29.66a3.16,3.16,0,0,0-2.19,3.65l.95,4.8a3.16,3.16,0,0,0,3.88,2.44q.38,10.49.92,18.66a4.92,4.92,0,0,0,5,4.6l1.33,0a4.93,4.93,0,0,0,4.79-5.21h0a7.62,7.62,0,0,0,11.95,2.73,27.56,27.56,0,0,0,3-3.15Q227,51.62,227,45,227,35.94,220.92,31.46ZM212.55,51q-2.58,3.76-6,4.36-.42-11.24-.6-16.87c.72,0,1.32-.06,1.79-.06a9.15,9.15,0,0,1,4.91,1.26A4.56,4.56,0,0,1,215,43.84,12.53,12.53,0,0,1,212.55,51Z"/><path class="cls-8" d="M156.8,26.44a15.78,15.78,0,0,0-11.54,4.34q-4.42,4.34-4.43,11.45,0,4.5,1.26,16.64a4.33,4.33,0,0,0,4.85,3.85l3.07-.4a4.32,4.32,0,0,0,3.74-4.6l-.41-6.09h7.27l-.4,5.91,0,.35a4.31,4.31,0,0,0,3.72,4.57l3,.41a4.32,4.32,0,0,0,4.87-3.81q1.35-12,1.35-16.35A15.82,15.82,0,0,0,156.8,26.44Zm4.06,18.94H153.1c0-.54,0-1.09,0-1.65a5.87,5.87,0,0,1,1-3.38,3.16,3.16,0,0,1,2.78-1.47,3.48,3.48,0,0,1,3,1.74,6.37,6.37,0,0,1,1,3.53C160.87,44.57,160.86,45,160.86,45.38Z"/><rect class="cls-7" x="75.5" y="44.13" width="9.35" height="6.26"/><path class="cls-7" d="M19.9,21.23,18.41,21a87,87,0,0,1-10-2l-1.54-.42L7.31,17a73.64,73.64,0,0,1,4-10.36,5.89,5.89,0,0,1,5.3-3.33,5.8,5.8,0,0,1,4.7,2.35,5.87,5.87,0,0,1,.92,5.22,76.45,76.45,0,0,0-2,8.84Zm-9.14-4.8c2.09.51,4.31,1,6.62,1.33a75.72,75.72,0,0,1,1.84-7.7h0a2.78,2.78,0,0,0-.43-2.48,2.74,2.74,0,0,0-2.22-1.11A2.8,2.8,0,0,0,14.06,8,68.31,68.31,0,0,0,10.76,16.43Z"/><path class="cls-8" d="M41.74,63.72a8.5,8.5,0,0,1-8.39-10h0a81.69,81.69,0,0,0,1.2-10l.09-1.39L36,42.19a81,81,0,0,0,12.68-1.46l1.75-.36.1,1.79a78.52,78.52,0,0,1-.38,14.19A8.5,8.5,0,0,1,41.74,63.72ZM36.4,54.26a5.29,5.29,0,0,0,1.15,4.4A5.43,5.43,0,0,0,47.11,56a72.37,72.37,0,0,0,.44-11.85,85.3,85.3,0,0,1-10,1.12,84.65,84.65,0,0,1-1.15,9Z"/><path class="cls-9" d="M43.89,20.39A74.39,74.39,0,0,0,39.39,8a2.78,2.78,0,0,0-2.5-1.57,2.73,2.73,0,0,0-2.22,1.11,2.78,2.78,0,0,0-.43,2.48,81.45,81.45,0,0,1,2.29,10.3l.29,1.78H35c-1.88,0-3.76,0-5.59-.09-3.75-.16-7.46-.5-11-1a85,85,0,0,1-10-2l-1.69-.47a2.91,2.91,0,0,0-.82-.12A2.8,2.8,0,0,0,4.21,19,2.72,2.72,0,0,0,3.1,21.18,2.8,2.8,0,0,0,4.67,23.7l1.09.5.85.38.55.24.67.26a84.85,84.85,0,0,0,10,3.3c3.12.83,6.33,1.53,9.53,2.08l.11,0c1.13.19,2.26.35,3.39.5.42.06.84.13,1.27.18.79.1,1.58.17,2.37.25l1.89.2,2.3.16.31,0,1.64.07,1.24,0,1.16,0h2.42c.32,0,.62,0,.94,0l-.06-.35A104,104,0,0,0,43.89,20.39Z"/><path class="cls-8" d="M45.42,31.91h0Z"/><path class="cls-8" d="M44.62,35h0Z"/><path class="cls-8" d="M40.6,31.86,39,31.79Z"/><path class="cls-8" d="M43,31.92l-1.16,0Z"/><path class="cls-8" d="M32.09,31.16c-.43-.05-.85-.12-1.27-.18C31.24,31,31.66,31.11,32.09,31.16Z"/><path class="cls-8" d="M30.34,34c-1.13-.15-2.26-.31-3.4-.5l.73.12C28.56,33.81,29.45,33.92,30.34,34Z"/><path class="cls-8" d="M5.38,24l.38.16-1.09-.5A2.8,2.8,0,0,1,3.1,21.18,2.72,2.72,0,0,1,4.21,19a2.8,2.8,0,0,1,1.66-.55,2.91,2.91,0,0,1,.82.12L8.38,19a85,85,0,0,0,10,2c3.56.51,7.27.85,11,1,1.83.08,3.71.11,5.59.09h1.8l-.29-1.78a81.45,81.45,0,0,0-2.29-10.3,2.78,2.78,0,0,1,.43-2.48,2.73,2.73,0,0,1,2.22-1.11A2.78,2.78,0,0,1,39.39,8a74.39,74.39,0,0,1,4.5,12.35A104,104,0,0,1,46.3,31.53l.06.35c.56,0,1.13,0,1.69-.06l.34,0,1.08-.07c0-.23-.07-.46-.11-.69a107.2,107.2,0,0,0-2.48-11.47A78.21,78.21,0,0,0,42.19,6.7a5.91,5.91,0,0,0-5.31-3.33,5.87,5.87,0,0,0-5.61,7.57,76.28,76.28,0,0,1,1.9,8.11C32,19,30.74,19,29.56,19c-3.65-.16-7.25-.49-10.7-1a80.13,80.13,0,0,1-9.67-2c-.55-.14-1.09-.3-1.62-.45A5.87,5.87,0,0,0,0,21.19a5.91,5.91,0,0,0,3.33,5.3l1.44.66L5,25.92Z"/><path class="cls-8" d="M6.61,24.58l.47.2.22.09.53.21-.67-.26Z"/><path class="cls-8" d="M7.91,28.45c.62.24,1.27.48,1.92.71C9.18,28.93,8.54,28.69,7.91,28.45Z"/><path class="cls-8" d="M31.71,34.24c.81.1,1.61.17,2.41.25C33.32,34.41,32.52,34.34,31.71,34.24Z"/><path class="cls-8" d="M27.38,30.47h.05l-.11,0Z"/><path class="cls-8" d="M39.87,34.93c.26,0,.53,0,.79,0Z"/><path class="cls-10" d="M9.83,29.16l.07,0Z"/><path class="cls-10" d="M40.66,35l2.61.06Z"/><path class="cls-10" d="M39.87,34.93q-1.86-.07-3.78-.24c-.65,0-1.31-.13-2-.2l2,.21C37.36,34.8,38.62,34.88,39.87,34.93Z"/><path class="cls-10" d="M47,35c-.79,0-1.57,0-2.38.06C45.42,35,46.22,35,47,35Z"/><path class="cls-10" d="M30.34,34l1.37.2Z"/><path class="cls-10" d="M26.94,33.54l-.17,0h.09Z"/><path class="cls-10" d="M6.61,24.58l-.85-.38Z"/><path class="cls-10" d="M7.83,25.08a82.71,82.71,0,0,0,10,3.33c3.07.81,6.27,1.5,9.51,2.05-3.2-.55-6.41-1.25-9.53-2.08A84.85,84.85,0,0,1,7.83,25.08Z"/><path class="cls-10" d="M28.16,30.6c.88.15,1.77.26,2.66.38-1.13-.15-2.26-.31-3.39-.5Z"/><path class="cls-10" d="M41.84,31.9l-1.24,0Z"/><path class="cls-10" d="M45,31.92h0Z"/><path class="cls-10" d="M34.46,31.41c-.79-.08-1.58-.15-2.37-.25C32.88,31.26,33.67,31.33,34.46,31.41Z"/><path class="cls-10" d="M46.36,31.9v0c-.32,0-.62,0-.94,0Z"/><path class="cls-10" d="M39,31.79l-.31,0Z"/><path class="cls-7" d="M54.5,33.71a5.89,5.89,0,0,0-4.91-2h-.12l-1.08.07-.34,0c-.56,0-1.13,0-1.69.06v0H43l-1.16,0-1.24,0L39,31.79l-.31,0c-.77-.05-1.54-.09-2.32-.16-.62-.05-1.25-.13-1.87-.2-.79-.08-1.58-.15-2.37-.25-.43-.05-.85-.12-1.27-.18-.89-.12-1.78-.23-2.66-.38l-.73-.12h-.11c-3.24-.55-6.44-1.24-9.51-2.05a82.71,82.71,0,0,1-10-3.33l-.53-.21-.22-.09-.47-.2-.85-.38L5.38,24,5,25.92l-.24,1.23c-.25,1.27-.49,2.55-.69,3.83C3.59,34,3.22,37.1,3,40.11a81.63,81.63,0,0,0,.25,16.24,8.52,8.52,0,1,0,16.83-2.66,81,81,0,0,1-1.13-9c2.38.28,4.8.48,7.23.6,3.36.17,6.72.18,10,0a83.57,83.57,0,0,0,13.17-1.53c.73-.15,1.44-.3,2.13-.47a5.91,5.91,0,0,0,4.37-4.5A5.81,5.81,0,0,0,54.5,33.71Zm-1.7,4.45a2.8,2.8,0,0,1-2.06,2.12c-.66.16-1.34.31-2,.45A81,81,0,0,1,36,42.19c-3.17.13-6.44.12-9.71,0-3-.14-5.95-.42-8.83-.8l-1.85-.25L15.73,43A88.77,88.77,0,0,0,17,54.26a5.29,5.29,0,0,1-1.15,4.4A5.43,5.43,0,0,1,6.31,56a79,79,0,0,1-.23-15.6c.22-2.93.58-5.91,1.06-8.88.16-1,.35-2.07.54-3.1l.23.08c.63.24,1.27.48,1.92.71l.07,0c2.23.79,4.6,1.52,7.09,2.18,3.2.86,6.49,1.58,9.78,2.14l.17,0c1.14.19,2.27.35,3.4.5l1.37.2c.81.1,1.61.17,2.41.25s1.32.15,2,.2q1.92.16,3.78.24l.79,0,2.61.06h1.35c.81,0,1.59,0,2.38-.06l1.22-.05.34,0c.43,0,.84,0,1.26-.07h.1a2.78,2.78,0,0,1,2.88,3.34Z"/></g></g></svg>