<svg xmlns="http://www.w3.org/2000/svg" xmlns:xlink="http://www.w3.org/1999/xlink" viewBox="0 0 418.73 100.49"><defs><style>.cls-1{fill:url(#linear-gradient);}.cls-2{fill:url(#linear-gradient-2);}.cls-3{fill:url(#linear-gradient-3);}.cls-4{fill:url(#linear-gradient-4);}.cls-5{fill:url(#linear-gradient-5);}.cls-6{fill:url(#linear-gradient-6);}.cls-7{fill:url(#linear-gradient-7);}.cls-8{fill:url(#linear-gradient-8);}.cls-9{fill:url(#linear-gradient-9);}.cls-10{fill:url(#linear-gradient-10);}.cls-11{fill:url(#linear-gradient-11);}.cls-12{fill:url(#linear-gradient-12);}.cls-13{fill:url(#linear-gradient-13);}.cls-14{fill:url(#linear-gradient-14);}.cls-15{fill:url(#linear-gradient-15);}.cls-16{fill:url(#linear-gradient-16);}.cls-17{fill:url(#linear-gradient-17);}.cls-18{fill:url(#linear-gradient-18);}.cls-19{fill:url(#linear-gradient-19);}</style><linearGradient id="linear-gradient" x1="230.46" y1="18.22" x2="230.46" y2="97.49" gradientUnits="userSpaceOnUse"><stop offset="0" stop-color="#f8f0a3"/><stop offset="0.36" stop-color="#c99736"/><stop offset="0.63" stop-color="#8f5e2e"/><stop offset="0.83" stop-color="#be8f33"/><stop offset="1" stop-color="#e4d561"/></linearGradient><linearGradient id="linear-gradient-2" x1="315.99" y1="18.22" x2="315.99" y2="97.49" xlink:href="#linear-gradient"/><linearGradient id="linear-gradient-3" x1="381.81" y1="18.22" x2="381.81" y2="97.49" xlink:href="#linear-gradient"/><linearGradient id="linear-gradient-4" x1="144.1" y1="18.22" x2="144.1" y2="97.49" xlink:href="#linear-gradient"/><linearGradient id="linear-gradient-5" x1="192.29" y1="72.32" x2="271.56" y2="72.32" gradientUnits="userSpaceOnUse"><stop offset="0.01" stop-color="#be8f33"/><stop offset="0.29" stop-color="#f8f0a3"/><stop offset="0.71" stop-color="#f5eb9c"/><stop offset="0.99" stop-color="#be8f33"/></linearGradient><linearGradient id="linear-gradient-6" x1="196.25" y1="42.02" x2="248.34" y2="42.02" gradientUnits="userSpaceOnUse"><stop offset="0" stop-color="#f8f0a3"/><stop offset="0.68" stop-color="#e4d561"/></linearGradient><linearGradient id="linear-gradient-7" x1="255.94" y1="45.47" x2="264.4" y2="45.5" gradientUnits="userSpaceOnUse"><stop offset="0" stop-color="#f8f0a3"/><stop offset="1" stop-color="#c99736"/></linearGradient><linearGradient id="linear-gradient-8" x1="209.54" y1="65.47" x2="250.59" y2="65.18" gradientUnits="userSpaceOnUse"><stop offset="0" stop-color="#be8f33"/><stop offset="0.78" stop-color="#e4d561"/></linearGradient><linearGradient id="linear-gradient-9" x1="269.37" y1="41.6" x2="325.32" y2="41.91" gradientUnits="userSpaceOnUse"><stop offset="0.18" stop-color="#f8f0a3"/><stop offset="0.96" stop-color="#e4d561"/></linearGradient><linearGradient id="linear-gradient-10" x1="269.55" y1="80.69" x2="363" y2="80.69" gradientUnits="userSpaceOnUse"><stop offset="0" stop-color="#d7b355"/><stop offset="0.09" stop-color="#f8f0a3"/><stop offset="0.18" stop-color="#d3ab4b"/><stop offset="0.3" stop-color="#e5ce76"/><stop offset="0.48" stop-color="#d1a747"/><stop offset="0.67" stop-color="#c99736"/><stop offset="0.81" stop-color="#f4ea9b"/></linearGradient><linearGradient id="linear-gradient-11" x1="323.87" y1="49.19" x2="340.57" y2="49.19" gradientUnits="userSpaceOnUse"><stop offset="0" stop-color="#c99736"/><stop offset="0.51" stop-color="#f8f0a3"/><stop offset="0.87" stop-color="#d5b051"/></linearGradient><linearGradient id="linear-gradient-12" x1="360.09" y1="51.15" x2="403.92" y2="51.15" gradientUnits="userSpaceOnUse"><stop offset="0" stop-color="#d8c051"/><stop offset="0.54" stop-color="#f8f0a3"/><stop offset="1" stop-color="#e4d561"/></linearGradient><linearGradient id="linear-gradient-13" x1="343.92" y1="62.4" x2="420" y2="62.4" gradientUnits="userSpaceOnUse"><stop offset="0.01" stop-color="#c99736"/><stop offset="0.27" stop-color="#f8f0a3"/><stop offset="0.73" stop-color="#ebdf7a"/><stop offset="1" stop-color="#cfa544"/></linearGradient><linearGradient id="linear-gradient-14" x1="183.14" y1="55.69" x2="103.86" y2="55.95" gradientUnits="userSpaceOnUse"><stop offset="0" stop-color="#c99736"/><stop offset="0.51" stop-color="#f8f0a3"/><stop offset="1" stop-color="#be8f33"/></linearGradient><linearGradient id="linear-gradient-15" x1="48.98" y1="0" x2="48.98" y2="90.97" xlink:href="#linear-gradient"/><linearGradient id="linear-gradient-16" x1="98.62" y1="45.93" x2="40.26" y2="91.49" gradientUnits="userSpaceOnUse"><stop offset="0" stop-color="#e3ba54"/><stop offset="0.44" stop-color="#eeb65a"/><stop offset="1" stop-color="#eee763"/></linearGradient><linearGradient id="linear-gradient-17" x1="54.08" y1="0.12" x2="54.08" y2="27.84" gradientUnits="userSpaceOnUse"><stop offset="0.68" stop-color="#f6f4ce"/><stop offset="1" stop-color="#eeb65a"/></linearGradient><linearGradient id="linear-gradient-18" x1="54" y1="41.44" x2="54" y2="67.03" gradientUnits="userSpaceOnUse"><stop offset="0" stop-color="#f8f0a3"/><stop offset="1" stop-color="#b08a39"/></linearGradient><linearGradient id="linear-gradient-19" x1="-1.1" y1="75.6" x2="82.91" y2="40.7" gradientUnits="userSpaceOnUse"><stop offset="0.01" stop-color="#b08a39"/><stop offset="0.3" stop-color="#f8f0a3"/><stop offset="0.56" stop-color="#eeb65a"/><stop offset="1" stop-color="#eeb65a"/></linearGradient></defs><title>jbro_w_g</title><g id="레이어_2" data-name="레이어 2"><g id="레이어_1-2" data-name="레이어 1"><path class="cls-1" d="M265.1,74.16a9.8,9.8,0,0,1-.81,3.51,9,9,0,0,1-2.64,3.58A7,7,0,0,1,257,82.8H195.81V49.49h47.34a5.26,5.26,0,0,0,2.68-1.07,3.41,3.41,0,0,0,1.62-3,4.35,4.35,0,0,0-1.3-2.81,4.55,4.55,0,0,0-3.57-1.45H195.81V28.71h56.92a8.3,8.3,0,0,1,4.82,1.61,12.88,12.88,0,0,1,3.7,3.88,8.13,8.13,0,0,1,1.39,4.17V46a8.8,8.8,0,0,1-.56,3.44,6.79,6.79,0,0,1-1.55,2.26c-.65.63-1.73,1.54-3.24,2.72a43.28,43.28,0,0,1,5.7,4.5,6.19,6.19,0,0,1,2.11,4.47ZM249,66.28c0-2.49-1.25-3.74-3.77-3.74H211.35v7.21h34.44a2.88,2.88,0,0,0,2.3-1A3.7,3.7,0,0,0,249,66.28Z"/><path class="cls-2" d="M361.83,100.49H341.61L306,62.24H285.84V82.87H270.15V49.27H319a4.8,4.8,0,0,0,2.9-1.08,3.53,3.53,0,0,0,1.43-3,3.36,3.36,0,0,0-.69-2.23,4.12,4.12,0,0,0-1.83-1.21,7.55,7.55,0,0,0-2.38-.37H270.15V28.79h59a10.17,10.17,0,0,1,10.11,10.14V52.44A9.24,9.24,0,0,1,337.82,58a7.57,7.57,0,0,1-3.48,2.73,19.3,19.3,0,0,1-4.65,1.06,26,26,0,0,0-3.08.45Z"/><path class="cls-3" d="M418.73,66.43a14.57,14.57,0,0,1-2.51,8.26,19.55,19.55,0,0,1-6.11,6,12.56,12.56,0,0,1-6.35,2.2H362.2a15.88,15.88,0,0,1-9.09-2.67A18.58,18.58,0,0,1,347,73.52a16.29,16.29,0,0,1-2.13-7.66V45.57a14.5,14.5,0,0,1,1.45-6.35,18.84,18.84,0,0,1,3.83-5.38,19.45,19.45,0,0,1,5.18-3.69,12.34,12.34,0,0,1,5.38-1.36h40.92a17.29,17.29,0,0,1,6.79,1.81,18.77,18.77,0,0,1,7.16,5.88A16.71,16.71,0,0,1,418.73,47ZM403.2,61.35V50.24a8.23,8.23,0,0,0-2.38-6c-1.58-1.64-4.09-2.45-7.5-2.45H369.37a7.9,7.9,0,0,0-3.45,1,12.07,12.07,0,0,0-3.59,2.79,5.52,5.52,0,0,0-1.53,3.69V60a10.62,10.62,0,0,0,2.06,6.4,7,7,0,0,0,5.9,2.6h26.67a8.71,8.71,0,0,0,5.5-1.76C402.44,66,403.2,64.08,403.2,61.35Z"/><path class="cls-4" d="M131,62.54h-21.9V77.93q0,2.25,4,3.55a28.76,28.76,0,0,0,9.46,1.32h43.13a29.81,29.81,0,0,0,9.53-1.32q3.87-1.31,3.87-3.39V28.65H157.18V69.74H131"/><path class="cls-5" d="M264.82,62.14V72.89A9.8,9.8,0,0,1,264,76.4,9.08,9.08,0,0,1,261.37,80a7,7,0,0,1-4.66,1.55H196.82l-1,1.34H257a7,7,0,0,0,4.66-1.54,9,9,0,0,0,2.64-3.59,9.7,9.7,0,0,0,.81-3.5V63.49a5.35,5.35,0,0,0-.32-1.73C264.79,61.89,264.82,62,264.82,62.14Z"/><path class="cls-6" d="M245.87,41.3a4.53,4.53,0,0,0-3.56-1.45H196.77l-1,1.34h46.77a4.58,4.58,0,0,1,3.57,1.45,6,6,0,0,1,1,1.55s0,0,0-.08A4.3,4.3,0,0,0,245.87,41.3Z"/><path class="cls-7" d="M262.37,44.75a8.73,8.73,0,0,1-.57,3.43,8.21,8.21,0,0,1-1.6,2.57,36.63,36.63,0,0,1-3.62,3,4.31,4.31,0,0,0,.71.66c1.11-.89,2.71-2.13,3.24-2.65a6.79,6.79,0,0,0,1.55-2.26,8.78,8.78,0,0,0,.56-3.43V38.44a6.31,6.31,0,0,0-.32-1.9,5.11,5.11,0,0,1,.05.55Z"/><path class="cls-8" d="M245.18,62.51c1.81,0,3,.66,3.47,1.95-.15-2.19-1.39-3.29-3.74-3.29H211.07v8.22l.28.36V62.51Z"/><path class="cls-9" d="M320.56,40.43a7.28,7.28,0,0,0-2.38-.38H271.51l-1.36,1.35h48.31a7.55,7.55,0,0,1,2.38.37A4,4,0,0,1,322.67,43a3.09,3.09,0,0,1,.4.74,3.3,3.3,0,0,0-.69-2.09A3.94,3.94,0,0,0,320.56,40.43Z"/><polygon class="cls-10" points="341.33 99.14 305.72 60.9 285.56 60.9 285.56 81.53 271.41 81.53 270.15 82.87 285.84 82.87 285.84 62.24 305.99 62.24 341.61 100.49 361.83 100.49 359.32 99.14 341.33 99.14"/><path class="cls-11" d="M339,51.06a9.26,9.26,0,0,1-1.46,5.56,7.57,7.57,0,0,1-3.48,2.73,19.67,19.67,0,0,1-4.65,1.06c-1.75.2-3.68.39-4,.49l1.18,1.34c.53-.08,2.08-.37,3.08-.49a19.8,19.8,0,0,0,4.65-1A7.59,7.59,0,0,0,337.82,58a9.24,9.24,0,0,0,1.46-5.56V38.9a10.34,10.34,0,0,0-.41-2.76,10.7,10.7,0,0,1,.13,1.41Z"/><path class="cls-12" d="M360.78,59.88V49.29a5.55,5.55,0,0,1,1.52-3.69,12.16,12.16,0,0,1,3.59-2.78,7.87,7.87,0,0,1,3.45-1.06h24q5.13,0,7.5,2.45a8.51,8.51,0,0,1,2.07,3.57,8.53,8.53,0,0,0-2.34-4.92q-2.38-2.45-7.51-2.44H369.06a8,8,0,0,0-3.45,1A11.87,11.87,0,0,0,362,44.26,5.48,5.48,0,0,0,360.5,48V58.53a16.3,16.3,0,0,0,.48,3.36C360.91,61.39,360.79,60.42,360.78,59.88Z"/><path class="cls-13" d="M418.15,41.93a21.69,21.69,0,0,1,.31,3.69V65.09A14.59,14.59,0,0,1,416,73.34a19.55,19.55,0,0,1-6.11,6,12.62,12.62,0,0,1-6.36,2.21H361.92a15.88,15.88,0,0,1-9.09-2.68,18.5,18.5,0,0,1-6.09-6.68,18.74,18.74,0,0,1-1.72-4.5,17.69,17.69,0,0,0,2,5.85,18.58,18.58,0,0,0,6.09,6.68,15.88,15.88,0,0,0,9.09,2.67h41.56a12.56,12.56,0,0,0,6.35-2.2,19.55,19.55,0,0,0,6.11-6,14.57,14.57,0,0,0,2.51-8.26V47A20.94,20.94,0,0,0,418.15,41.93Z"/><path class="cls-14" d="M178.8,76.74c0,1.39-1.3,2.52-3.88,3.4a30.11,30.11,0,0,1-9.53,1.31H122.26a29.06,29.06,0,0,1-9.46-1.31q-2.91-1-3.67-2.44v.23q0,2.25,4,3.55a28.76,28.76,0,0,0,9.46,1.32h43.13a29.81,29.81,0,0,0,9.53-1.32q3.87-1.31,3.87-3.39V28.65h-.27Z"/><polyline class="cls-15" points="41.43 18.45 22.11 8.96 22.11 65.39 0 54.3 0 72.5 35.63 90.97 35.63 31.07 73.24 49.91 54.3 64.37 54.3 42.47 41.43 36.05 41.43 90.97 97.97 47.02 54.3 24.91 54.3 6.3 41.43 0"/><polygon class="cls-16" points="97.97 47.02 96.86 47.02 41.92 89.62 41.43 90.97 97.97 47.02"/><polygon class="cls-17" points="54.3 24.98 54.3 6.36 53.87 6.7 53.87 24.75 54.3 24.98"/><polygon class="cls-18" points="54.3 64.32 54.3 42.47 53.7 43.06 53.7 63.91 54.3 64.32"/><polygon class="cls-19" points="34.98 29.98 35.05 90.03 0.57 72.16 0 72.5 35.63 90.97 35.63 31.07 73.24 49.91 73.15 49.31 34.98 29.98"/></g></g></svg>